<svg width="54" height="54" viewBox="0 0 54 54" fill="none" xmlns="http://www.w3.org/2000/svg">
<path d="M22.5 18H31.5V14.625C31.5 10.2758 35.0257 6.75 39.375 6.75C43.7243 6.75 47.25 10.2758 47.25 14.625C47.25 18.9742 43.7243 22.5 39.375 22.5H36V31.5H39.375C43.7243 31.5 47.25 35.0257 47.25 39.375C47.25 43.7243 43.7243 47.25 39.375 47.25C35.0257 47.25 31.5 43.7243 31.5 39.375V36H22.5V39.375C22.5 43.7243 18.9742 47.25 14.625 47.25C10.2758 47.25 6.75 43.7243 6.75 39.375C6.75 35.0257 10.2758 31.5 14.625 31.5H18V22.5H14.625C10.2758 22.5 6.75 18.9742 6.75 14.625C6.75 10.2758 10.2758 6.75 14.625 6.75C18.9742 6.75 22.5 10.2758 22.5 14.625V18ZM18 18V14.625C18 12.761 16.489 11.25 14.625 11.25C12.761 11.25 11.25 12.761 11.25 14.625C11.25 16.489 12.761 18 14.625 18H18ZM18 36H14.625C12.761 36 11.25 37.5111 11.25 39.375C11.25 41.2389 12.761 42.75 14.625 42.75C16.489 42.75 18 41.2389 18 39.375V36ZM36 18H39.375C41.2389 18 42.75 16.489 42.75 14.625C42.75 12.761 41.2389 11.25 39.375 11.25C37.5111 11.25 36 12.761 36 14.625V18ZM36 36V39.375C36 41.2389 37.5111 42.75 39.375 42.75C41.2389 42.75 42.75 41.2389 42.75 39.375C42.75 37.5111 41.2389 36 39.375 36H36ZM22.5 22.5V31.5H31.5V22.5H22.5Z" fill="white"/>
</svg>
